# xmcd
#
# Track frame offsets: 
#        150
#        14655
#        29904
#        31464
#        50488
#        71867
#        77234
#        92142
#        93953
#        116145
#        119373
#        134754
#        147122
#        161366
#        178447
#        194078
#        213249
#        218060
#        233137
#        245905
#
# Disc length: 3941 seconds
#
# Revision: 0
# Processed by: cddbd v1.5.2PL0 Copyright (c) Steve Scherf et al.
# Submitted via: ExactAudioCopy v1.0b3
#
DISCID=3e0f6314
DTITLE=Various Artist - vet verse flows
DYEAR=2003
DGENRE=hip hop
TTITLE0=Dicecream, Maniak - vet verse flows
TTITLE1=Kingstreet Klick - vet van a tot z
TTITLE2=Jerome XL - Jerome skit
TTITLE3=Il Zwaard ft. MHD - dit is
TTITLE4=Egaflavour - wat ik zie
TTITLE5=Samiro - mokerslag
TTITLE6=Typhoon ft. Opgezwolle - het doek valt
TTITLE7=VSOP - tekkel
TTITLE8=Brainpower - schreeuw het uit
TTITLE9=Kingstreet Klick - kingstreetskit
TTITLE10=Typhoon ft. Dynopha - ale iacta est
TTITLE11=Kingstreet Klick - ragga benz
TTITLE12=MC Art - voluit
TTITLE13=Manie, Brainpower ft. Dice - mijn zone
TTITLE14=Samiro ft. Tease - meesterzet
TTITLE15=VSOP - achter de vuurlinie
TTITLE16=Dicecream - zinloos
TTITLE17=Egaflavour - rappers klinken kut
TTITLE18=Jerome XL - vrijdagmiddag
TTITLE19=Dicecream, Maniak, Murth - fantasteez
EXTD=
EXTT0=
EXTT1=
EXTT2=
EXTT3=
EXTT4=
EXTT5=
EXTT6=
EXTT7=
EXTT8=
EXTT9=
EXTT10=
EXTT11=
EXTT12=
EXTT13=
EXTT14=
EXTT15=
EXTT16=
EXTT17=
EXTT18=
EXTT19=
PLAYORDER=
